<svg width="24" height="26" viewBox="0 0 24 26" fill="none" xmlns="http://www.w3.org/2000/svg">
<path d="M20.0475 18.4728C18.8437 16.9995 17.9939 16.2495 17.9939 12.1878C17.9939 8.46826 16.0945 7.1431 14.5312 6.49951C14.3236 6.4142 14.1281 6.21826 14.0648 6.00498C13.7906 5.0717 13.0219 4.24951 12 4.24951C10.9781 4.24951 10.2089 5.07217 9.93748 6.00592C9.8742 6.22154 9.67873 6.4142 9.47108 6.49951C7.90592 7.14404 6.00842 8.46451 6.00842 12.1878C6.00608 16.2495 5.15624 16.9995 3.95249 18.4728C3.45374 19.0831 3.89061 19.9995 4.76296 19.9995H19.2417C20.1094 19.9995 20.5434 19.0803 20.0475 18.4728Z" stroke="black" stroke-width="1.5" stroke-linecap="round" stroke-linejoin="round"/>
<path d="M15 19.9988V20.7488C15 21.5444 14.6839 22.3075 14.1213 22.8701C13.5587 23.4327 12.7956 23.7488 12 23.7488C11.2043 23.7488 10.4413 23.4327 9.87868 22.8701C9.31607 22.3075 9 21.5444 9 20.7488V19.9988" stroke="black" stroke-width="1.5" stroke-linecap="round" stroke-linejoin="round"/>
<circle cx="18" cy="6" r="6" fill="#EB5757"/>
<path d="M15.6726 7.97727V7.00852L18.1016 3.18182H18.9368V4.52273H18.4425L16.9112 6.94602V6.99148H20.3629V7.97727H15.6726ZM18.4652 9V7.68182L18.4879 7.25284V3.18182H19.6413V9H18.4652Z" fill="white"/>
</svg>
