<svg width="32" height="32" viewBox="0 0 32 32" fill="none" xmlns="http://www.w3.org/2000/svg">
<g id="blur_on">
<path id="Icon" fill-rule="evenodd" clip-rule="evenodd" d="M7.99992 17.3333C7.26659 17.3333 6.66659 17.9333 6.66659 18.6666C6.66659 19.3999 7.26659 19.9999 7.99992 19.9999C8.73325 19.9999 9.33325 19.3999 9.33325 18.6666C9.33325 17.9333 8.73325 17.3333 7.99992 17.3333ZM7.99992 22.6666C7.26659 22.6666 6.66659 23.2666 6.66659 23.9999C6.66659 24.7333 7.26659 25.3333 7.99992 25.3333C8.73325 25.3333 9.33325 24.7333 9.33325 23.9999C9.33325 23.2666 8.73325 22.6666 7.99992 22.6666ZM7.99992 11.9999C7.26659 11.9999 6.66659 12.5999 6.66659 13.3333C6.66659 14.0666 7.26659 14.6666 7.99992 14.6666C8.73325 14.6666 9.33325 14.0666 9.33325 13.3333C9.33325 12.5999 8.73325 11.9999 7.99992 11.9999ZM3.99992 12.6666C3.62659 12.6666 3.33325 12.9599 3.33325 13.3333C3.33325 13.7066 3.62659 13.9999 3.99992 13.9999C4.37325 13.9999 4.66659 13.7066 4.66659 13.3333C4.66659 12.9599 4.37325 12.6666 3.99992 12.6666ZM7.99992 6.66659C7.26659 6.66659 6.66659 7.26659 6.66659 7.99992C6.66659 8.73325 7.26659 9.33325 7.99992 9.33325C8.73325 9.33325 9.33325 8.73325 9.33325 7.99992C9.33325 7.26659 8.73325 6.66659 7.99992 6.66659ZM27.9999 13.9999C28.3733 13.9999 28.6666 13.7066 28.6666 13.3333C28.6666 12.9599 28.3733 12.6666 27.9999 12.6666C27.6266 12.6666 27.3333 12.9599 27.3333 13.3333C27.3333 13.7066 27.6266 13.9999 27.9999 13.9999ZM18.6666 9.33325C19.3999 9.33325 19.9999 8.73325 19.9999 7.99992C19.9999 7.26659 19.3999 6.66659 18.6666 6.66659C17.9333 6.66659 17.3333 7.26659 17.3333 7.99992C17.3333 8.73325 17.9333 9.33325 18.6666 9.33325ZM18.6666 4.66659C19.0399 4.66659 19.3333 4.37325 19.3333 3.99992C19.3333 3.62659 19.0399 3.33325 18.6666 3.33325C18.2933 3.33325 17.9999 3.62659 17.9999 3.99992C17.9999 4.37325 18.2933 4.66659 18.6666 4.66659ZM3.99992 17.9999C3.62659 17.9999 3.33325 18.2933 3.33325 18.6666C3.33325 19.0399 3.62659 19.3333 3.99992 19.3333C4.37325 19.3333 4.66659 19.0399 4.66659 18.6666C4.66659 18.2933 4.37325 17.9999 3.99992 17.9999ZM13.3333 27.3333C12.9599 27.3333 12.6666 27.6266 12.6666 27.9999C12.6666 28.3733 12.9599 28.6666 13.3333 28.6666C13.7066 28.6666 13.9999 28.3733 13.9999 27.9999C13.9999 27.6266 13.7066 27.3333 13.3333 27.3333ZM13.3333 4.66659C13.7066 4.66659 13.9999 4.37325 13.9999 3.99992C13.9999 3.62659 13.7066 3.33325 13.3333 3.33325C12.9599 3.33325 12.6666 3.62659 12.6666 3.99992C12.6666 4.37325 12.9599 4.66659 13.3333 4.66659ZM13.3333 9.33325C14.0666 9.33325 14.6666 8.73325 14.6666 7.99992C14.6666 7.26659 14.0666 6.66659 13.3333 6.66659C12.5999 6.66659 11.9999 7.26659 11.9999 7.99992C11.9999 8.73325 12.5999 9.33325 13.3333 9.33325ZM13.3333 16.6666C12.2266 16.6666 11.3333 17.5599 11.3333 18.6666C11.3333 19.7733 12.2266 20.6666 13.3333 20.6666C14.4399 20.6666 15.3333 19.7733 15.3333 18.6666C15.3333 17.5599 14.4399 16.6666 13.3333 16.6666ZM23.9999 17.3333C23.2666 17.3333 22.6666 17.9333 22.6666 18.6666C22.6666 19.3999 23.2666 19.9999 23.9999 19.9999C24.7333 19.9999 25.3333 19.3999 25.3333 18.6666C25.3333 17.9333 24.7333 17.3333 23.9999 17.3333ZM23.9999 22.6666C23.2666 22.6666 22.6666 23.2666 22.6666 23.9999C22.6666 24.7333 23.2666 25.3333 23.9999 25.3333C24.7333 25.3333 25.3333 24.7333 25.3333 23.9999C25.3333 23.2666 24.7333 22.6666 23.9999 22.6666ZM23.9999 11.9999C23.2666 11.9999 22.6666 12.5999 22.6666 13.3333C22.6666 14.0666 23.2666 14.6666 23.9999 14.6666C24.7333 14.6666 25.3333 14.0666 25.3333 13.3333C25.3333 12.5999 24.7333 11.9999 23.9999 11.9999ZM23.9999 6.66659C23.2666 6.66659 22.6666 7.26659 22.6666 7.99992C22.6666 8.73325 23.2666 9.33325 23.9999 9.33325C24.7333 9.33325 25.3333 8.73325 25.3333 7.99992C25.3333 7.26659 24.7333 6.66659 23.9999 6.66659ZM27.9999 17.9999C27.6266 17.9999 27.3333 18.2933 27.3333 18.6666C27.3333 19.0399 27.6266 19.3333 27.9999 19.3333C28.3733 19.3333 28.6666 19.0399 28.6666 18.6666C28.6666 18.2933 28.3733 17.9999 27.9999 17.9999ZM18.6666 22.6666C17.9333 22.6666 17.3333 23.2666 17.3333 23.9999C17.3333 24.7333 17.9333 25.3333 18.6666 25.3333C19.3999 25.3333 19.9999 24.7333 19.9999 23.9999C19.9999 23.2666 19.3999 22.6666 18.6666 22.6666ZM18.6666 27.3333C18.2933 27.3333 17.9999 27.6266 17.9999 27.9999C17.9999 28.3733 18.2933 28.6666 18.6666 28.6666C19.0399 28.6666 19.3333 28.3733 19.3333 27.9999C19.3333 27.6266 19.0399 27.3333 18.6666 27.3333ZM13.3333 11.3333C12.2266 11.3333 11.3333 12.2266 11.3333 13.3333C11.3333 14.4399 12.2266 15.3333 13.3333 15.3333C14.4399 15.3333 15.3333 14.4399 15.3333 13.3333C15.3333 12.2266 14.4399 11.3333 13.3333 11.3333ZM13.3333 22.6666C12.5999 22.6666 11.9999 23.2666 11.9999 23.9999C11.9999 24.7333 12.5999 25.3333 13.3333 25.3333C14.0666 25.3333 14.6666 24.7333 14.6666 23.9999C14.6666 23.2666 14.0666 22.6666 13.3333 22.6666ZM18.6666 16.6666C17.5599 16.6666 16.6666 17.5599 16.6666 18.6666C16.6666 19.7733 17.5599 20.6666 18.6666 20.6666C19.7733 20.6666 20.6666 19.7733 20.6666 18.6666C20.6666 17.5599 19.7733 16.6666 18.6666 16.6666ZM18.6666 11.3333C17.5599 11.3333 16.6666 12.2266 16.6666 13.3333C16.6666 14.4399 17.5599 15.3333 18.6666 15.3333C19.7733 15.3333 20.6666 14.4399 20.6666 13.3333C20.6666 12.2266 19.7733 11.3333 18.6666 11.3333Z" fill="#969696"/>
</g>
</svg>
