<svg width="20" height="20" viewBox="0 0 20 20" fill="none" xmlns="http://www.w3.org/2000/svg">
<g id="cancel">
<path id="Icon" fill-rule="evenodd" clip-rule="evenodd" d="M10.0001 1.66675C5.39175 1.66675 1.66675 5.39175 1.66675 10.0001C1.66675 14.6084 5.39175 18.3334 10.0001 18.3334C14.6084 18.3334 18.3334 14.6084 18.3334 10.0001C18.3334 5.39175 14.6084 1.66675 10.0001 1.66675ZM13.5834 13.5834C13.2584 13.9084 12.7334 13.9084 12.4084 13.5834L10.0001 11.1751L7.59175 13.5834C7.26675 13.9084 6.74175 13.9084 6.41675 13.5834C6.09175 13.2584 6.09175 12.7334 6.41675 12.4084L8.82509 10.0001L6.41675 7.59175C6.09175 7.26675 6.09175 6.74175 6.41675 6.41675C6.74175 6.09175 7.26675 6.09175 7.59175 6.41675L10.0001 8.82508L12.4084 6.41675C12.7334 6.09175 13.2584 6.09175 13.5834 6.41675C13.9084 6.74175 13.9084 7.26675 13.5834 7.59175L11.1751 10.0001L13.5834 12.4084C13.9001 12.7251 13.9001 13.2584 13.5834 13.5834Z" fill="#E8E8E8"/>
</g>
</svg>
