<svg width="24" height="24" viewBox="0 0 24 24" fill="none" xmlns="http://www.w3.org/2000/svg">
<g id="website">
<g id="website_2">
<path fill-rule="evenodd" clip-rule="evenodd" d="M10 7C10.5523 7 11 7.44772 11 8V16C11 16.5523 10.5523 17 10 17H6C5.44772 17 5 16.5523 5 16V8C5 7.44772 5.44772 7 6 7H10ZM7 9H9V15H7V9Z" fill="#818181"/>
<path d="M18 7C18.5523 7 19 7.44772 19 8C19 8.55228 18.5523 9 18 9H14C13.4477 9 13 8.55228 13 8C13 7.44772 13.4477 7 14 7H18Z" fill="#818181"/>
<path d="M18 11C18.5523 11 19 11.4477 19 12C19 12.5523 18.5523 13 18 13H14C13.4477 13 13 12.5523 13 12C13 11.4477 13.4477 11 14 11H18Z" fill="#818181"/>
<path d="M19 16C19 15.4477 18.5523 15 18 15H14C13.4477 15 13 15.4477 13 16C13 16.5523 13.4477 17 14 17H18C18.5523 17 19 16.5523 19 16Z" fill="#818181"/>
<path fill-rule="evenodd" clip-rule="evenodd" d="M20 3C21.6569 3 23 4.34315 23 6V18C23 19.6569 21.6569 21 20 21H4C2.34315 21 1 19.6569 1 18V6C1 4.34315 2.34315 3 4 3H20ZM4 5H20C20.5523 5 21 5.44772 21 6V18C21 18.5523 20.5523 19 20 19H4C3.44772 19 3 18.5523 3 18V6C3 5.44772 3.44772 5 4 5Z" fill="#818181"/>
</g>
</g>
</svg>
